<?xml version="1.0" encoding="UTF-8"?>
<!DOCTYPE svg PUBLIC "-//W3C//DTD SVG 1.1//EN" "http://www.w3.org/Graphics/SVG/1.1/DTD/svg11.dtd">
<svg xmlns="http://www.w3.org/2000/svg" version="1.1" width="908px" height="920px" style="shape-rendering:geometricPrecision; text-rendering:geometricPrecision; image-rendering:optimizeQuality; fill-rule:evenodd; clip-rule:evenodd" xmlns:xlink="http://www.w3.org/1999/xlink">
<g><path style="opacity:0.989" fill="#fefefe" d="M 907.5,370.5 C 907.5,426.5 907.5,482.5 907.5,538.5C 897.363,595.61 876.696,648.944 845.5,698.5C 838.667,709.495 831.334,720.162 823.5,730.5C 810.127,745.205 797.127,760.205 784.5,775.5C 758.733,800.215 731.067,822.382 701.5,842C 602.29,901.64 495.29,922.307 380.5,904C 314.502,892.044 253.835,867.211 198.5,829.5C 78.8553,743.206 13.6887,626.539 3,479.5C -1.97948,327.392 53.8539,202.059 170.5,103.5C 234.78,53.2306 307.447,21.8972 388.5,9.5C 403.155,9.02824 417.488,7.52824 431.5,5C 531.546,-0.463699 623.879,23.0363 708.5,75.5C 766.31,115.144 814.143,164.477 852,223.5C 865.663,247.491 877.663,272.157 888,297.5C 895.896,321.414 902.396,345.747 907.5,370.5 Z"/></g>
<g><path style="opacity:1" fill="#333d45" d="M 540.5,126.5 C 545.705,126.134 550.705,126.967 555.5,129C 581.359,143.701 594.359,166.035 594.5,196C 594.384,201.867 593.884,207.7 593,213.5C 591.268,220.251 589.601,226.917 588,233.5C 627.388,266.291 644.722,308.291 640,359.5C 636.776,375.112 628.276,386.945 614.5,395C 606.861,398.991 598.861,401.991 590.5,404C 618.839,439.496 630.672,479.996 626,525.5C 623.646,569.702 606.146,606.535 573.5,636C 532.081,669.552 485.748,694.552 434.5,711C 405.694,719.427 376.694,727.094 347.5,734C 328.627,744.27 309.627,754.27 290.5,764C 287.167,764.667 283.833,764.667 280.5,764C 279.667,763.167 278.833,762.333 278,761.5C 276.516,755.235 276.182,748.902 277,742.5C 280.444,728.779 284.61,715.279 289.5,702C 268.87,635.055 267.036,567.555 284,499.5C 285.967,491.791 288.467,484.291 291.5,477C 267.702,478.184 247.536,470.351 231,453.5C 218.569,436.107 215.236,417.107 221,396.5C 228.014,382.986 237.514,371.486 249.5,362C 282.235,338.192 318.902,324.192 359.5,320C 382.111,317.684 404.778,316.517 427.5,316.5C 422.267,274.488 436.933,241.655 471.5,218C 459.789,193.956 441.789,176.29 417.5,165C 407.99,162.482 398.323,160.815 388.5,160C 376.35,155.511 373.183,147.344 379,135.5C 383.083,130.047 388.583,127.714 395.5,128.5C 422.094,130.135 445.094,139.969 464.5,158C 479.078,172.904 491.745,189.237 502.5,207C 521.609,204.624 539.942,207.458 557.5,215.5C 562.486,201.212 562.653,186.878 558,172.5C 556.262,168.759 553.762,165.592 550.5,163C 545.802,160.651 541.136,158.318 536.5,156C 529.623,148.481 528.79,140.315 534,131.5C 535.965,129.45 538.132,127.783 540.5,126.5 Z"/></g>
<g><path style="opacity:1" fill="#e3a54e" d="M 353.5,348.5 C 353.938,348.435 354.272,348.601 354.5,349C 341.51,352.942 328.51,356.775 315.5,360.5C 327.77,355.522 340.437,351.522 353.5,348.5 Z"/></g>
<g><path style="opacity:1" fill="#fd9928" d="M 418.5,344.5 C 424.303,344.961 429.97,346.127 435.5,348C 447.766,352.801 459.766,358.134 471.5,364C 496.134,378.653 520.801,393.32 545.5,408C 572.234,429.622 588.567,457.455 594.5,491.5C 595.746,501.981 595.746,512.314 594.5,522.5C 519.728,478.61 445.062,434.444 370.5,390C 368.187,389.338 365.854,388.838 363.5,388.5C 355.16,385.88 346.827,385.88 338.5,388.5C 321.319,392.011 309.653,402.011 303.5,418.5C 302.348,423.985 302.182,429.651 303,435.5C 303.383,436.056 303.883,436.389 304.5,436.5C 305.776,437.386 305.776,438.386 304.5,439.5C 290.786,444.935 277.119,444.768 263.5,439C 252.172,430.7 247.672,419.533 250,405.5C 256.122,395.711 263.955,387.544 273.5,381C 286.572,372.297 300.572,365.464 315.5,360.5C 328.51,356.775 341.51,352.942 354.5,349C 354.272,348.601 353.938,348.435 353.5,348.5C 355.948,347.527 358.615,347.194 361.5,347.5C 380.358,344.74 399.358,343.74 418.5,344.5 Z"/></g>
<g><path style="opacity:1" fill="#2e2a23" d="M 363.5,388.5 C 355.167,388.5 346.833,388.5 338.5,388.5C 346.827,385.88 355.16,385.88 363.5,388.5 Z"/></g>
<g><path style="opacity:1" fill="#e6ab54" d="M 418.5,344.5 C 399.358,343.74 380.358,344.74 361.5,347.5C 365.867,345.742 370.534,344.575 375.5,344C 390.006,343.173 404.339,343.339 418.5,344.5 Z"/></g>
<g><path style="opacity:1" fill="#fcfdfd" d="M 540.5,265.5 C 556.554,263.442 567.054,270.109 572,285.5C 575.306,301.635 569.806,313.469 555.5,321C 538.544,324.067 527.71,317.233 523,300.5C 520.366,284.434 526.199,272.767 540.5,265.5 Z"/></g>
<g><path style="opacity:1" fill="#fefefe" d="M 412.5,585.5 C 404.888,589.977 397.222,594.477 389.5,599C 376.322,601.335 367.822,596.168 364,583.5C 363.5,574.173 363.334,564.839 363.5,555.5C 363.5,527.833 363.5,500.167 363.5,472.5C 363.333,457.83 363.5,443.163 364,428.5C 404.751,452.793 445.584,476.959 486.5,501C 495.289,507.8 496.789,515.966 491,525.5C 487.5,529 484,532.5 480.5,536C 457.943,552.766 435.276,569.266 412.5,585.5 Z"/></g>
<g><path style="opacity:1" fill="#a87635" d="M 303.5,418.5 C 303.303,424.545 303.637,430.545 304.5,436.5C 303.883,436.389 303.383,436.056 303,435.5C 302.182,429.651 302.348,423.985 303.5,418.5 Z"/></g>
<g><path style="opacity:1" fill="#1c262e" d="M 363.5,472.5 C 363.5,500.167 363.5,527.833 363.5,555.5C 363.167,555.5 362.833,555.5 362.5,555.5C 361.513,513.171 361.347,470.838 362,428.5C 362.169,443.339 362.669,458.006 363.5,472.5 Z"/></g>
<g><path style="opacity:1" fill="#251b0c" d="M 594.5,491.5 C 595.222,491.918 595.722,492.584 596,493.5C 596.832,503.517 596.666,513.517 595.5,523.5C 594.893,523.376 594.56,523.043 594.5,522.5C 595.746,512.314 595.746,501.981 594.5,491.5 Z"/></g>
<g><path style="opacity:1" fill="#fd9927" d="M 362.5,555.5 C 362.833,555.5 363.167,555.5 363.5,555.5C 363.334,564.839 363.5,574.173 364,583.5C 367.822,596.168 376.322,601.335 389.5,599C 397.222,594.477 404.888,589.977 412.5,585.5C 446.636,605.067 480.303,625.401 513.5,646.5C 492.041,659.144 469.541,669.811 446,678.5C 396.059,649.686 346.559,620.352 297.5,590.5C 300.113,572.21 302.446,553.877 304.5,535.5C 304.611,530.941 305.611,526.608 307.5,522.5C 325.807,533.696 344.141,544.696 362.5,555.5 Z"/></g>
<g><path style="opacity:1" fill="#da9f4b" d="M 304.5,535.5 C 302.446,553.877 300.113,572.21 297.5,590.5C 296.903,590.265 296.57,589.765 296.5,589C 298.578,570.947 301.245,553.114 304.5,535.5 Z"/></g>
<g><path style="opacity:1" fill="#fc9928" d="M 531.5,539.5 C 532.552,539.351 533.552,539.517 534.5,540C 550.929,550.079 567.262,560.246 583.5,570.5C 576.098,587.072 566.098,601.905 553.5,615C 552.167,615.667 550.833,615.667 549.5,615C 528.974,602.241 508.64,589.241 488.5,576C 502.731,563.593 517.064,551.427 531.5,539.5 Z"/></g>
<g><path style="opacity:1" fill="#fb9a2a" d="M 300.5,642.5 C 329.887,659.085 358.887,676.419 387.5,694.5C 367.763,700.597 347.596,704.931 327,707.5C 325.5,707.167 324,706.833 322.5,706.5C 312.707,685.987 305.374,664.654 300.5,642.5 Z"/></g>
</svg>
