<?xml version="1.0" encoding="UTF-8"?>
<!DOCTYPE svg PUBLIC "-//W3C//DTD SVG 1.1//EN" "http://www.w3.org/Graphics/SVG/1.1/DTD/svg11.dtd">
<svg xmlns="http://www.w3.org/2000/svg" version="1.1" width="500px" height="500px" style="shape-rendering:geometricPrecision; text-rendering:geometricPrecision; image-rendering:optimizeQuality; fill-rule:evenodd; clip-rule:evenodd" xmlns:xlink="http://www.w3.org/1999/xlink">
<g><path style="opacity:0.004" fill="#fefffe" d="M 468.5,1.5 C 469.833,2.16667 469.833,2.16667 468.5,1.5 Z"/></g>
<g><path style="opacity:0.004" fill="#fefffe" d="M 238.5,5.5 C 239.833,6.16667 239.833,6.16667 238.5,5.5 Z"/></g>
<g><path style="opacity:0.004" fill="#fefffe" d="M 308.5,6.5 C 309.833,7.16667 309.833,7.16667 308.5,6.5 Z"/></g>
<g><path style="opacity:0.004" fill="#fefffe" d="M 249.5,11.5 C 250.833,12.1667 250.833,12.1667 249.5,11.5 Z"/></g>
<g><path style="opacity:0.004" fill="#fefffe" d="M 477.5,11.5 C 478.833,12.1667 478.833,12.1667 477.5,11.5 Z"/></g>
<g><path style="opacity:0.004" fill="#fefffe" d="M 226.5,19.5 C 227.833,20.1667 227.833,20.1667 226.5,19.5 Z"/></g>
<g><path style="opacity:0.004" fill="#fefffe" d="M 129.5,36.5 C 130.833,37.1667 130.833,37.1667 129.5,36.5 Z"/></g>
<g><path style="opacity:0.004" fill="#fefffe" d="M 453.5,39.5 C 454.833,40.1667 454.833,40.1667 453.5,39.5 Z"/></g>
<g><path style="opacity:0.004" fill="#fefffe" d="M 85.5,51.5 C 86.8333,52.1667 86.8333,52.1667 85.5,51.5 Z"/></g>
<g><path style="opacity:0.004" fill="#fefffe" d="M 41.5,52.5 C 42.8333,53.1667 42.8333,53.1667 41.5,52.5 Z"/></g>
<g><path style="opacity:0.004" fill="#fefffe" d="M 1.5,69.5 C 2.83333,70.1667 2.83333,70.1667 1.5,69.5 Z"/></g>
<g><path style="opacity:0.004" fill="#fefffe" d="M 458.5,81.5 C 459.833,82.1667 459.833,82.1667 458.5,81.5 Z"/></g>
<g><path style="opacity:0.004" fill="#fefffe" d="M 158.5,92.5 C 159.833,93.1667 159.833,93.1667 158.5,92.5 Z"/></g>
<g><path style="opacity:0.004" fill="#fefffe" d="M 410.5,95.5 C 411.833,96.1667 411.833,96.1667 410.5,95.5 Z"/></g>
<g><path style="opacity:0.004" fill="#fefffe" d="M 136.5,97.5 C 137.833,98.1667 137.833,98.1667 136.5,97.5 Z"/></g>
<g><path style="opacity:0.004" fill="#fefffe" d="M 19.5,106.5 C 20.8333,107.167 20.8333,107.167 19.5,106.5 Z"/></g>
<g><path style="opacity:0.004" fill="#fefffe" d="M 295.5,110.5 C 296.833,111.167 296.833,111.167 295.5,110.5 Z"/></g>
<g><path style="opacity:0.004" fill="#fefffe" d="M 453.5,129.5 C 454.833,130.167 454.833,130.167 453.5,129.5 Z"/></g>
<g><path style="opacity:0.004" fill="#fefffe" d="M 204.5,155.5 C 205.833,156.167 205.833,156.167 204.5,155.5 Z"/></g>
<g><path style="opacity:0.004" fill="#fefffe" d="M 292.5,157.5 C 293.833,158.167 293.833,158.167 292.5,157.5 Z"/></g>
<g><path style="opacity:1" fill="#3a4146" d="M 158.5,228.5 C 157.127,228.343 155.793,228.51 154.5,229C 155.044,229.717 155.711,230.217 156.5,230.5C 164.281,238.499 167.948,248.166 167.5,259.5C 166.698,258.048 166.198,256.382 166,254.5C 164.335,256.036 162.168,257.703 159.5,259.5C 158.395,254.555 157.728,249.555 157.5,244.5C 154.011,243.537 152.511,241.203 153,237.5C 154.11,239.037 155.61,239.703 157.5,239.5C 157.657,238.127 157.49,236.793 157,235.5C 156.333,236.833 155.667,236.833 155,235.5C 153.991,233.975 153.491,232.308 153.5,230.5C 151.801,230.34 150.134,230.506 148.5,231C 150.559,232.185 150.726,233.352 149,234.5C 147.269,233.259 145.436,232.259 143.5,231.5C 141.938,231.267 140.605,230.6 139.5,229.5C 137.463,228.154 135.463,226.82 133.5,225.5C 132.044,223.716 131.044,221.716 130.5,219.5C 124.582,219.407 119.582,217.24 115.5,213C 106.652,210.788 97.6518,209.954 88.5,210.5C 85.3586,209.679 82.0252,209.179 78.5,209C 77.5291,207.519 76.1958,206.685 74.5,206.5C 77.8586,204.781 81.5253,203.614 85.5,203C 92.1915,202.831 98.8581,202.331 105.5,201.5C 103.876,190.909 107.876,183.075 117.5,178C 114.651,173.306 111.318,168.973 107.5,165C 103.185,162.451 98.5187,161.118 93.5,161C 89.7548,155.076 91.4214,151.576 98.5,150.5C 111.754,153.241 121.421,160.741 127.5,173C 130.188,173.392 132.855,173.892 135.5,174.5C 137.708,173.601 139.874,173.935 142,175.5C 142.667,172.167 142.667,168.833 142,165.5C 139.961,163.126 137.628,161.126 135,159.5C 133.788,156.166 134.621,153.666 137.5,152C 145.414,151.89 150.581,155.724 153,163.5C 153.658,165.8 154.158,168.133 154.5,170.5C 153.657,173.848 153.157,177.181 153,180.5C 166.994,190.826 172.328,204.493 169,221.5C 166.394,225.29 162.894,227.623 158.5,228.5 Z M 144.5,193.5 C 146.793,196.906 147.126,200.573 145.5,204.5C 143.429,206.1 141.095,206.6 138.5,206C 136.93,204.603 135.596,203.103 134.5,201.5C 135.457,195.464 138.79,192.797 144.5,193.5 Z"/></g>
<g><path style="opacity:0.004" fill="#fefffe" d="M 367.5,166.5 C 368.833,167.167 368.833,167.167 367.5,166.5 Z"/></g>
<g><path style="opacity:0.004" fill="#fefffe" d="M 436.5,170.5 C 437.833,171.167 437.833,171.167 436.5,170.5 Z"/></g>
<g><path style="opacity:0.004" fill="#fefffe" d="M 474.5,171.5 C 475.833,172.167 475.833,172.167 474.5,171.5 Z"/></g>
<g><path style="opacity:0.004" fill="#fefffe" d="M 235.5,182.5 C 236.833,183.167 236.833,183.167 235.5,182.5 Z"/></g>
<g><path style="opacity:0.004" fill="#fefffe" d="M 464.5,184.5 C 465.833,185.167 465.833,185.167 464.5,184.5 Z"/></g>
<g><path style="opacity:0.004" fill="#fefffe" d="M 46.5,190.5 C 47.8333,191.167 47.8333,191.167 46.5,190.5 Z"/></g>
<g><path style="opacity:0.816" fill="#7e8285" d="M 144.5,193.5 C 138.79,192.797 135.457,195.464 134.5,201.5C 133.094,194.402 136.094,191.235 143.5,192C 144.056,192.383 144.389,192.883 144.5,193.5 Z"/></g>
<g><path style="opacity:0.004" fill="#fefffe" d="M 43.5,194.5 C 44.8333,195.167 44.8333,195.167 43.5,194.5 Z"/></g>
<g><path style="opacity:0.055" fill="#cecfd5" d="M 223.5,196.5 C 225.898,196.259 227.898,196.926 229.5,198.5C 227.214,198.405 225.214,197.738 223.5,196.5 Z"/></g>
<g><path style="opacity:0.004" fill="#fefffe" d="M 460.5,201.5 C 461.833,202.167 461.833,202.167 460.5,201.5 Z"/></g>
<g><path style="opacity:0.004" fill="#fefffe" d="M 395.5,202.5 C 396.833,203.167 396.833,203.167 395.5,202.5 Z"/></g>
<g><path style="opacity:0.404" fill="#9a9c9f" d="M 134.5,201.5 C 135.596,203.103 136.93,204.603 138.5,206C 141.095,206.6 143.429,206.1 145.5,204.5C 145.047,205.458 144.381,206.292 143.5,207C 137.867,208.989 134.867,207.156 134.5,201.5 Z"/></g>
<g><path style="opacity:0.227" fill="#c6c9c9" d="M 262.5,218.5 C 262.5,216.167 262.5,213.833 262.5,211.5C 259.167,211.5 255.833,211.5 252.5,211.5C 252.5,208.167 252.5,204.833 252.5,201.5C 249.833,201.5 247.167,201.5 244.5,201.5C 244.5,204.833 244.5,208.167 244.5,211.5C 242.5,211.5 240.5,211.5 238.5,211.5C 239.919,210.549 241.585,210.216 243.5,210.5C 243.5,207.167 243.5,203.833 243.5,200.5C 246.833,200.5 250.167,200.5 253.5,200.5C 253.5,203.833 253.5,207.167 253.5,210.5C 256.833,210.5 260.167,210.5 263.5,210.5C 263.806,213.385 263.473,216.052 262.5,218.5 Z"/></g>
<g><path style="opacity:0.059" fill="#d9d9da" d="M 393.5,210.5 C 390.119,210.46 386.786,210.793 383.5,211.5C 385.117,210.028 387.117,209.361 389.5,209.5C 391.045,209.511 392.378,209.844 393.5,210.5 Z"/></g>
<g><path style="opacity:1" fill="#4b3e2d" d="M 88.5,210.5 C 97.6518,209.954 106.652,210.788 115.5,213C 119.582,217.24 124.582,219.407 130.5,219.5C 131.044,221.716 132.044,223.716 133.5,225.5C 128.403,222.285 123.07,219.618 117.5,217.5C 114.443,214.638 110.776,212.805 106.5,212C 98.2965,211.018 90.2965,211.518 82.5,213.5C 83.6798,211.087 85.6798,210.087 88.5,210.5 Z"/></g>
<g><path style="opacity:1" fill="#4e5357" d="M 382.5,211.5 C 381.537,212.363 381.537,213.03 382.5,213.5C 383.736,212.754 385.07,212.421 386.5,212.5C 386.351,213.552 386.517,214.552 387,215.5C 387.333,215.167 387.667,214.833 388,214.5C 390.5,217 393,219.5 395.5,222C 393.551,229.894 392.884,238.061 393.5,246.5C 395.833,246.5 398.167,246.5 400.5,246.5C 400.175,239.313 400.509,232.313 401.5,225.5C 401.5,232.833 401.5,240.167 401.5,247.5C 398.5,247.5 395.5,247.5 392.5,247.5C 392.666,239.493 392.5,231.493 392,223.5C 391.34,221.676 390.173,220.343 388.5,219.5C 384.047,218.231 381.047,219.897 379.5,224.5C 378.188,223.855 377.188,222.855 376.5,221.5C 377.975,219.191 379.642,217.024 381.5,215C 380.944,214.617 380.611,214.117 380.5,213.5C 380.5,213.167 380.5,212.833 380.5,212.5C 380.842,211.662 381.508,211.328 382.5,211.5 Z"/></g>
<g><path style="opacity:1" fill="#c8893f" d="M 117.5,217.5 C 113.161,216.065 108.827,214.565 104.5,213C 94.5287,212.154 84.862,213.487 75.5,217C 75.8333,217.333 76.1667,217.667 76.5,218C 73.7549,219.717 70.7549,220.883 67.5,221.5C 64.4704,223.543 61.4704,225.543 58.5,227.5C 62.3498,222.233 67.3498,218.4 73.5,216C 76.4453,214.869 79.4453,214.036 82.5,213.5C 90.2965,211.518 98.2965,211.018 106.5,212C 110.776,212.805 114.443,214.638 117.5,217.5 Z"/></g>
<g><path style="opacity:1" fill="#353b40" d="M 277.5,246.5 C 274.5,246.5 271.5,246.5 268.5,246.5C 268.5,234.833 268.5,223.167 268.5,211.5C 271.5,211.5 274.5,211.5 277.5,211.5C 277.351,212.552 277.517,213.552 278,214.5C 281.43,210.083 285.93,208.416 291.5,209.5C 291.54,212.881 291.207,216.214 290.5,219.5C 285.961,218.957 282.127,220.29 279,223.5C 277.644,231.095 277.144,238.762 277.5,246.5 Z"/></g>
<g><path style="opacity:1" fill="#30373c" d="M 380.5,213.5 C 380.611,214.117 380.944,214.617 381.5,215C 379.642,217.024 377.975,219.191 376.5,221.5C 377.188,222.855 378.188,223.855 379.5,224.5C 379.5,224.833 379.5,225.167 379.5,225.5C 378.509,232.313 378.175,239.313 378.5,246.5C 375.833,246.5 373.167,246.5 370.5,246.5C 370.5,234.833 370.5,223.167 370.5,211.5C 374.083,211.232 377.416,211.899 380.5,213.5 Z"/></g>
<g><path style="opacity:0.004" fill="#fefffe" d="M 488.5,214.5 C 489.833,215.167 489.833,215.167 488.5,214.5 Z"/></g>
<g><path style="opacity:1" fill="#394044" d="M 423.5,219.5 C 423.5,228.5 423.5,237.5 423.5,246.5C 420.5,246.5 417.5,246.5 414.5,246.5C 414.91,237.75 414.41,229.084 413,220.5C 409.466,217.799 406.133,218.133 403,221.5C 402.79,223.058 402.29,224.391 401.5,225.5C 400.509,232.313 400.175,239.313 400.5,246.5C 398.167,246.5 395.833,246.5 393.5,246.5C 392.884,238.061 393.551,229.894 395.5,222C 393,219.5 390.5,217 388,214.5C 387.667,214.833 387.333,215.167 387,215.5C 386.517,214.552 386.351,213.552 386.5,212.5C 385.07,212.421 383.736,212.754 382.5,213.5C 381.537,213.03 381.537,212.363 382.5,211.5C 382.833,211.5 383.167,211.5 383.5,211.5C 386.786,210.793 390.119,210.46 393.5,210.5C 396.287,210.78 398.453,212.113 400,214.5C 400.383,213.944 400.883,213.611 401.5,213.5C 403.027,213.573 404.027,212.906 404.5,211.5C 410.496,208.402 416.163,209.068 421.5,213.5C 423.086,215.173 423.753,217.173 423.5,219.5 Z"/></g>
<g><path style="opacity:0.463" fill="#a9acae" d="M 404.5,211.5 C 404.027,212.906 403.027,213.573 401.5,213.5C 401.973,212.094 402.973,211.427 404.5,211.5 Z"/></g>
<g><path style="opacity:0.004" fill="#fefffe" d="M 388.5,219.5 C 387.833,220.167 387.833,220.167 388.5,219.5 Z"/></g>
<g><path style="opacity:1" fill="#40464b" d="M 262.5,218.5 C 259.5,218.5 256.5,218.5 253.5,218.5C 253.334,224.842 253.5,231.175 254,237.5C 255.126,238.944 256.626,239.61 258.5,239.5C 262.524,237.343 264.524,238.509 264.5,243C 264.167,244.167 263.833,245.333 263.5,246.5C 255.071,250.411 248.571,248.411 244,240.5C 243.5,233.174 243.334,225.841 243.5,218.5C 241.833,218.5 240.167,218.5 238.5,218.5C 238.5,216.167 238.5,213.833 238.5,211.5C 240.5,211.5 242.5,211.5 244.5,211.5C 244.5,208.167 244.5,204.833 244.5,201.5C 247.167,201.5 249.833,201.5 252.5,201.5C 252.5,204.833 252.5,208.167 252.5,211.5C 255.833,211.5 259.167,211.5 262.5,211.5C 262.5,213.833 262.5,216.167 262.5,218.5 Z"/></g>
<g><path style="opacity:1" fill="#eb8e2b" d="M 117.5,217.5 C 123.07,219.618 128.403,222.285 133.5,225.5C 135.463,226.82 137.463,228.154 139.5,229.5C 143.841,234.173 148.174,238.84 152.5,243.5C 154.065,245.509 155.065,247.843 155.5,250.5C 155.82,253.898 155.487,257.232 154.5,260.5C 152.929,259.691 151.262,259.357 149.5,259.5C 147.5,258.5 145.5,257.5 143.5,256.5C 132.167,249.5 120.833,242.5 109.5,235.5C 108.016,232.555 105.682,230.555 102.5,229.5C 104.731,229.113 107.064,228.947 109.5,229C 111.26,228.035 111.594,226.868 110.5,225.5C 107.815,227.676 104.982,227.676 102,225.5C 100.293,225.648 98.6264,225.982 97,226.5C 91.3795,223.001 85.2128,221.668 78.5,222.5C 76.9648,225.232 75.1315,227.898 73,230.5C 72.5026,233.146 72.3359,235.813 72.5,238.5C 69.1016,238.82 65.7683,238.487 62.5,237.5C 61.4231,236.295 60.0898,235.628 58.5,235.5C 57.1667,232.833 57.1667,230.167 58.5,227.5C 61.4704,225.543 64.4704,223.543 67.5,221.5C 70.7549,220.883 73.7549,219.717 76.5,218C 76.1667,217.667 75.8333,217.333 75.5,217C 84.862,213.487 94.5287,212.154 104.5,213C 108.827,214.565 113.161,216.065 117.5,217.5 Z"/></g>
<g><path style="opacity:1" fill="#da903d" d="M 109.5,235.5 C 103.282,232.629 97.2822,229.295 91.5,225.5C 79.9401,222.712 74.2734,227.378 74.5,239.5C 73.209,239.263 72.209,239.596 71.5,240.5C 65.9141,241.627 61.5808,239.96 58.5,235.5C 60.0898,235.628 61.4231,236.295 62.5,237.5C 65.7683,238.487 69.1016,238.82 72.5,238.5C 72.3359,235.813 72.5026,233.146 73,230.5C 75.1315,227.898 76.9648,225.232 78.5,222.5C 85.2128,221.668 91.3795,223.001 97,226.5C 98.6264,225.982 100.293,225.648 102,225.5C 104.982,227.676 107.815,227.676 110.5,225.5C 111.594,226.868 111.26,228.035 109.5,229C 107.064,228.947 104.731,229.113 102.5,229.5C 105.682,230.555 108.016,232.555 109.5,235.5 Z"/></g>
<g><path style="opacity:1" fill="#3e4449" d="M 363.5,246.5 C 359.889,246.956 356.556,246.289 353.5,244.5C 352.893,244.624 352.56,244.957 352.5,245.5C 347.577,248.879 342.244,249.379 336.5,247C 329.261,242.115 327.928,235.949 332.5,228.5C 333.622,227.37 334.956,226.703 336.5,226.5C 342.441,225.587 348.441,225.254 354.5,225.5C 354.768,223.901 354.434,222.568 353.5,221.5C 351.944,219.012 349.611,218.012 346.5,218.5C 344.833,218.667 343.167,218.833 341.5,219C 338.469,223.061 334.802,223.561 330.5,220.5C 334.334,211.82 341.001,208.32 350.5,210C 357.132,210.636 361.298,214.136 363,220.5C 363.5,229.16 363.666,237.827 363.5,246.5 Z M 342.5,231.5 C 346.167,231.5 349.833,231.5 353.5,231.5C 353.836,237.028 351.169,240.028 345.5,240.5C 339.052,239.015 338.052,236.015 342.5,231.5 Z"/></g>
<g><path style="opacity:0.129" fill="#c0c0c0" d="M 49.5,221.5 C 49.573,223.027 48.9063,224.027 47.5,224.5C 47.427,222.973 48.0937,221.973 49.5,221.5 Z"/></g>
<g><path style="opacity:1" fill="#3c4247" d="M 326.5,222.5 C 326.5,225.5 326.5,228.5 326.5,231.5C 317.808,231.169 309.141,231.502 300.5,232.5C 300.942,233.739 301.609,234.739 302.5,235.5C 304.731,238.031 307.564,239.365 311,239.5C 314.315,238.595 317.481,237.261 320.5,235.5C 322.453,236.156 324.453,236.489 326.5,236.5C 323.148,245.687 316.481,249.52 306.5,248C 293.59,243.013 289.09,233.846 293,220.5C 299.697,209.271 308.864,206.771 320.5,213C 323.647,215.464 325.647,218.63 326.5,222.5 Z M 316.5,224.5 C 311.381,225.103 306.715,224.436 302.5,222.5C 302.5,221.833 302.833,221.5 303.5,221.5C 304.5,221.167 305.167,220.5 305.5,219.5C 311.006,217.248 315.339,218.748 318.5,224C 317.906,224.464 317.239,224.631 316.5,224.5 Z"/></g>
<g><path style="opacity:0.086" fill="#aaaeb0" d="M 302.5,222.5 C 306.715,224.436 311.381,225.103 316.5,224.5C 311.695,225.487 306.695,225.821 301.5,225.5C 301.263,224.209 301.596,223.209 302.5,222.5 Z"/></g>
<g><path style="opacity:0.004" fill="#fafafa" d="M 305.5,219.5 C 305.167,220.5 304.5,221.167 303.5,221.5C 303.5,220.167 304.167,219.5 305.5,219.5 Z"/></g>
<g><path style="opacity:0.702" fill="#727577" d="M 353.5,221.5 C 354.434,222.568 354.768,223.901 354.5,225.5C 348.441,225.254 342.441,225.587 336.5,226.5C 336.611,225.883 336.944,225.383 337.5,225C 342.823,224.501 348.156,224.334 353.5,224.5C 353.5,223.5 353.5,222.5 353.5,221.5 Z"/></g>
<g><path style="opacity:1" fill="#5c401d" d="M 91.5,225.5 C 80.3253,224.343 74.992,229.343 75.5,240.5C 74.1667,240.5 72.8333,240.5 71.5,240.5C 72.209,239.596 73.209,239.263 74.5,239.5C 74.2734,227.378 79.9401,222.712 91.5,225.5 Z"/></g>
<g><path style="opacity:1" fill="#3e4449" d="M 223.5,196.5 C 225.214,197.738 227.214,198.405 229.5,198.5C 239.395,204.204 238.729,208.204 227.5,210.5C 226.749,209.624 226.249,208.624 226,207.5C 224.348,206.601 222.848,205.601 221.5,204.5C 220.726,203.853 219.726,203.52 218.5,203.5C 216.645,203.34 215.312,204.007 214.5,205.5C 212.667,207.496 212.167,209.829 213,212.5C 218.892,215.854 225.058,218.687 231.5,221C 238.934,228.725 238.934,236.725 231.5,245C 221.124,250.477 211.624,249.311 203,241.5C 199.648,238.343 199.815,235.509 203.5,233C 205.058,232.79 206.391,232.29 207.5,231.5C 210.077,232.606 211.744,234.606 212.5,237.5C 213.287,239.104 214.62,239.771 216.5,239.5C 220.594,240.295 223.761,238.962 226,235.5C 226.48,232.458 225.313,230.125 222.5,228.5C 215.092,226.88 208.592,223.546 203,218.5C 199.979,202.021 206.812,194.687 223.5,196.5 Z"/></g>
<g><path style="opacity:0.2" fill="#aaafb1" d="M 221.5,204.5 C 219.097,204.448 216.764,204.781 214.5,205.5C 215.312,204.007 216.645,203.34 218.5,203.5C 219.726,203.52 220.726,203.853 221.5,204.5 Z"/></g>
<g><path style="opacity:0.141" fill="#cdcecf" d="M 158.5,228.5 C 157.833,229.167 157.167,229.833 156.5,230.5C 155.711,230.217 155.044,229.717 154.5,229C 155.793,228.51 157.127,228.343 158.5,228.5 Z"/></g>
<g><path style="opacity:0.004" fill="#fefffe" d="M 207.5,231.5 C 206.833,230.167 206.833,230.167 207.5,231.5 Z"/></g>
<g><path style="opacity:1" fill="#c18747" d="M 139.5,229.5 C 140.605,230.6 141.938,231.267 143.5,231.5C 145.795,234.297 148.295,236.964 151,239.5C 151.791,240.745 152.291,242.078 152.5,243.5C 148.174,238.84 143.841,234.173 139.5,229.5 Z"/></g>
<g><path style="opacity:0.408" fill="#95989a" d="M 326.5,222.5 C 327.479,225.625 327.813,228.958 327.5,232.5C 319.167,232.5 310.833,232.5 302.5,232.5C 302.5,233.5 302.5,234.5 302.5,235.5C 301.609,234.739 300.942,233.739 300.5,232.5C 309.141,231.502 317.808,231.169 326.5,231.5C 326.5,228.5 326.5,225.5 326.5,222.5 Z"/></g>
<g><path style="opacity:0.251" fill="#838588" d="M 380.5,212.5 C 380.5,212.833 380.5,213.167 380.5,213.5C 377.416,211.899 374.083,211.232 370.5,211.5C 370.5,223.167 370.5,234.833 370.5,246.5C 373.167,246.5 375.833,246.5 378.5,246.5C 378.175,239.313 378.509,232.313 379.5,225.5C 379.5,232.833 379.5,240.167 379.5,247.5C 376.167,247.5 372.833,247.5 369.5,247.5C 369.5,235.167 369.5,222.833 369.5,210.5C 373.502,210.036 377.169,210.702 380.5,212.5 Z"/></g>
<g><path style="opacity:1" fill="#383d41" d="M 74.5,206.5 C 76.1958,206.685 77.5291,207.519 78.5,209C 82.0252,209.179 85.3586,209.679 88.5,210.5C 85.6798,210.087 83.6798,211.087 82.5,213.5C 79.4453,214.036 76.4453,214.869 73.5,216C 67.3498,218.4 62.3498,222.233 58.5,227.5C 57.1667,230.167 57.1667,232.833 58.5,235.5C 61.5808,239.96 65.9141,241.627 71.5,240.5C 72.8333,240.5 74.1667,240.5 75.5,240.5C 74.992,229.343 80.3253,224.343 91.5,225.5C 97.2822,229.295 103.282,232.629 109.5,235.5C 120.833,242.5 132.167,249.5 143.5,256.5C 143.5,257.5 143.5,258.5 143.5,259.5C 140.927,259.148 138.594,259.648 136.5,261C 137.025,261.692 137.692,262.192 138.5,262.5C 140.702,261.22 142.868,261.22 145,262.5C 145.818,265.227 145.652,267.894 144.5,270.5C 142.081,268.351 139.414,267.685 136.5,268.5C 134.833,267.167 133.167,265.833 131.5,264.5C 130.5,266.5 129.5,268.5 128.5,270.5C 127.534,268.604 127.201,266.604 127.5,264.5C 127.557,263.391 127.89,262.391 128.5,261.5C 128.715,259.821 128.048,258.821 126.5,258.5C 115.865,252.514 105.199,246.514 94.5,240.5C 94.44,239.957 94.1067,239.624 93.5,239.5C 92.5012,250.48 92.1679,261.48 92.5,272.5C 91.8333,272.5 91.1667,272.5 90.5,272.5C 90.1667,272.5 89.8333,272.5 89.5,272.5C 84.7671,269.11 79.7671,266.11 74.5,263.5C 72.6921,264.918 72.0254,266.918 72.5,269.5C 70.712,269.215 69.0453,269.548 67.5,270.5C 68.6888,271.429 70.0222,271.762 71.5,271.5C 71.8122,274.888 70.4789,277.388 67.5,279C 70.5,279.333 72.1667,281 72.5,284C 73.5,284.333 74.5,284.667 75.5,285C 73.5676,286.352 72.2343,288.185 71.5,290.5C 70.1667,288.833 68.8333,287.167 67.5,285.5C 66.6858,287.766 66.1858,290.1 66,292.5C 65.5005,286.509 65.3338,280.509 65.5,274.5C 65.8464,268.039 66.8464,261.706 68.5,255.5C 68.1667,254.5 67.8333,253.5 67.5,252.5C 54.887,250.885 47.5536,243.885 45.5,231.5C 45.7243,228.92 46.3909,226.586 47.5,224.5C 48.9063,224.027 49.573,223.027 49.5,221.5C 56.0945,213.699 64.4278,208.699 74.5,206.5 Z"/></g>
<g><path style="opacity:0.362" fill="#929698" d="M 423.5,219.5 C 424.494,228.652 424.827,237.985 424.5,247.5C 420.958,247.813 417.625,247.479 414.5,246.5C 417.5,246.5 420.5,246.5 423.5,246.5C 423.5,237.5 423.5,228.5 423.5,219.5 Z"/></g>
<g><path style="opacity:0.086" fill="#ced0d6" d="M 277.5,211.5 C 274.5,211.5 271.5,211.5 268.5,211.5C 268.5,223.167 268.5,234.833 268.5,246.5C 271.5,246.5 274.5,246.5 277.5,246.5C 274.375,247.479 271.042,247.813 267.5,247.5C 267.5,235.167 267.5,222.833 267.5,210.5C 271.042,210.187 274.375,210.521 277.5,211.5 Z"/></g>
<g><path style="opacity:0.004" fill="#fefffe" d="M 308.5,237.5 C 309.833,238.167 309.833,238.167 308.5,237.5 Z"/></g>
<g><path style="opacity:0.196" fill="#b6b7ba" d="M 212.5,237.5 C 214.153,237.66 215.486,238.326 216.5,239.5C 214.62,239.771 213.287,239.104 212.5,237.5 Z"/></g>
<g><path style="opacity:0.078" fill="#e9e6e0" d="M 94.5,240.5 C 93.5043,253.99 93.171,267.656 93.5,281.5C 92.5233,278.713 92.19,275.713 92.5,272.5C 92.1679,261.48 92.5012,250.48 93.5,239.5C 94.1067,239.624 94.44,239.957 94.5,240.5 Z"/></g>
<g><path style="opacity:0.306" fill="#aeaeb2" d="M 352.5,245.5 C 352.56,244.957 352.893,244.624 353.5,244.5C 356.556,246.289 359.889,246.956 363.5,246.5C 359.695,248.008 356.028,247.675 352.5,245.5 Z"/></g>
<g><path style="opacity:0.133" fill="#ffe4c8" d="M 203.5,259.5 C 206.962,258.518 210.629,258.185 214.5,258.5C 214.5,265.167 214.5,271.833 214.5,278.5C 221.167,278.5 227.833,278.5 234.5,278.5C 234.5,278.833 234.5,279.167 234.5,279.5C 227.5,279.5 220.5,279.5 213.5,279.5C 213.5,272.833 213.5,266.167 213.5,259.5C 210.5,259.5 207.5,259.5 204.5,259.5C 204.167,259.5 203.833,259.5 203.5,259.5 Z"/></g>
<g><path style="opacity:0.004" fill="#f3f3f5" d="M 126.5,258.5 C 128.048,258.821 128.715,259.821 128.5,261.5C 127.599,260.71 126.932,259.71 126.5,258.5 Z"/></g>
<g><path style="opacity:1" fill="#b6823d" d="M 155.5,250.5 C 156.117,250.611 156.617,250.944 157,251.5C 157.499,255.486 157.666,259.486 157.5,263.5C 154.246,263.206 151.579,261.873 149.5,259.5C 151.262,259.357 152.929,259.691 154.5,260.5C 155.487,257.232 155.82,253.898 155.5,250.5 Z"/></g>
<g><path style="opacity:1" fill="#3a3e41" d="M 167.5,259.5 C 168.025,274.28 162.692,286.446 151.5,296C 150.906,296.464 150.239,296.631 149.5,296.5C 148.211,294.752 146.711,294.419 145,295.5C 144.667,294.833 144.333,294.167 144,293.5C 142.833,294.667 141.667,295.833 140.5,297C 141.109,299.058 142.109,299.891 143.5,299.5C 141.993,300.739 140.826,300.405 140,298.5C 137.959,299.423 135.792,299.756 133.5,299.5C 131.929,296.221 130.262,292.888 128.5,289.5C 127.264,290.246 125.93,290.579 124.5,290.5C 124.5,288.833 124.5,287.167 124.5,285.5C 123.127,285.343 121.793,285.51 120.5,286C 121.993,287.156 121.826,287.99 120,288.5C 118.862,288.011 117.695,287.678 116.5,287.5C 113.074,285.924 109.74,284.091 106.5,282C 107.056,281.617 107.389,281.117 107.5,280.5C 113.854,274.817 120.52,269.484 127.5,264.5C 127.201,266.604 127.534,268.604 128.5,270.5C 129.5,268.5 130.5,266.5 131.5,264.5C 133.167,265.833 134.833,267.167 136.5,268.5C 139.414,267.685 142.081,268.351 144.5,270.5C 145.652,267.894 145.818,265.227 145,262.5C 142.868,261.22 140.702,261.22 138.5,262.5C 137.692,262.192 137.025,261.692 136.5,261C 138.594,259.648 140.927,259.148 143.5,259.5C 143.5,258.5 143.5,257.5 143.5,256.5C 145.5,257.5 147.5,258.5 149.5,259.5C 151.579,261.873 154.246,263.206 157.5,263.5C 157.666,259.486 157.499,255.486 157,251.5C 156.617,250.944 156.117,250.611 155.5,250.5C 155.065,247.843 154.065,245.509 152.5,243.5C 152.291,242.078 151.791,240.745 151,239.5C 148.295,236.964 145.795,234.297 143.5,231.5C 145.436,232.259 147.269,233.259 149,234.5C 150.726,233.352 150.559,232.185 148.5,231C 150.134,230.506 151.801,230.34 153.5,230.5C 153.491,232.308 153.991,233.975 155,235.5C 155.667,236.833 156.333,236.833 157,235.5C 157.49,236.793 157.657,238.127 157.5,239.5C 155.61,239.703 154.11,239.037 153,237.5C 152.511,241.203 154.011,243.537 157.5,244.5C 157.728,249.555 158.395,254.555 159.5,259.5C 162.168,257.703 164.335,256.036 166,254.5C 166.198,256.382 166.698,258.048 167.5,259.5 Z"/></g>
<g><path style="opacity:1" fill="#e3af75" d="M 254.5,257.5 C 259.186,255.305 262.186,256.805 263.5,262C 261.097,267.301 257.431,268.468 252.5,265.5C 251.456,263.232 251.289,260.899 252,258.5C 252.671,257.748 253.504,257.414 254.5,257.5 Z"/></g>
<g><path style="opacity:1" fill="#ea8f31" d="M 254.5,257.5 C 256.467,257.261 258.301,257.594 260,258.5C 260.497,260.81 260.663,263.143 260.5,265.5C 253.761,266.46 251.761,263.793 254.5,257.5 Z"/></g>
<g><path style="opacity:0.004" fill="#fefffe" d="M 190.5,263.5 C 191.833,264.167 191.833,264.167 190.5,263.5 Z"/></g>
<g><path style="opacity:1" fill="#d39144" d="M 74.5,263.5 C 79.7671,266.11 84.7671,269.11 89.5,272.5C 85.3293,270.588 80.9959,268.921 76.5,267.5C 77.0912,270.983 76.4245,274.316 74.5,277.5C 74.3631,279.841 75.0298,281.841 76.5,283.5C 75.5041,283.586 74.6708,283.252 74,282.5C 73.4756,276.15 73.6423,269.816 74.5,263.5 Z"/></g>
<g><path style="opacity:0.561" fill="#e9c092" d="M 276.5,276.5 C 275.596,275.791 275.263,274.791 275.5,273.5C 272.5,273.5 269.5,273.5 266.5,273.5C 266.5,274.5 266.5,275.5 266.5,276.5C 265.566,275.432 265.232,274.099 265.5,272.5C 269.167,272.5 272.833,272.5 276.5,272.5C 276.5,273.833 276.5,275.167 276.5,276.5 Z"/></g>
<g><path style="opacity:1" fill="#ed8e2a" d="M 89.5,272.5 C 89.8333,272.5 90.1667,272.5 90.5,272.5C 90.6621,274.527 90.4955,276.527 90,278.5C 88.9887,279.337 87.8221,279.67 86.5,279.5C 86.5,280.5 86.5,281.5 86.5,282.5C 87.9305,282.579 89.2638,282.246 90.5,281.5C 91.6957,287.65 90.029,288.65 85.5,284.5C 82.5719,283.516 79.5719,283.183 76.5,283.5C 75.0298,281.841 74.3631,279.841 74.5,277.5C 76.4245,274.316 77.0912,270.983 76.5,267.5C 80.9959,268.921 85.3293,270.588 89.5,272.5 Z"/></g>
<g><path style="opacity:1" fill="#e68e31" d="M 146.5,286.5 C 141.092,285.973 136.425,283.806 132.5,280C 132.833,279.667 133.167,279.333 133.5,279C 132.027,278.29 131.36,277.124 131.5,275.5C 133.423,272.535 136.09,270.535 139.5,269.5C 143.623,271.395 147.623,273.562 151.5,276C 152.213,280.417 150.546,283.917 146.5,286.5 Z"/></g>
<g><path style="opacity:1" fill="#e88f2f" d="M 204.5,259.5 C 207.5,259.5 210.5,259.5 213.5,259.5C 213.5,266.167 213.5,272.833 213.5,279.5C 220.5,279.5 227.5,279.5 234.5,279.5C 235.328,273.347 235.828,267.013 236,260.5C 238.381,259.565 240.881,259.232 243.5,259.5C 243.5,275.833 243.5,292.167 243.5,308.5C 240.881,308.768 238.381,308.435 236,307.5C 235.828,300.654 235.328,293.987 234.5,287.5C 227.5,287.5 220.5,287.5 213.5,287.5C 213.5,294.5 213.5,301.5 213.5,308.5C 210.5,308.5 207.5,308.5 204.5,308.5C 204.5,292.167 204.5,275.833 204.5,259.5 Z"/></g>
<g><path style="opacity:1" fill="#e59745" d="M 337.5,293.5 C 328.833,293.5 320.167,293.5 311.5,293.5C 319.65,292.507 327.983,292.174 336.5,292.5C 336.5,291.167 336.5,289.833 336.5,288.5C 335.5,288.5 334.5,288.5 333.5,288.5C 334.231,286.401 334.231,284.401 333.5,282.5C 331.077,283.712 330.077,285.712 330.5,288.5C 323.978,288.823 317.645,288.49 311.5,287.5C 309.16,286.914 306.993,285.914 305,284.5C 304.172,288.466 303.672,292.466 303.5,296.5C 299.955,282.266 305.455,273.933 320,271.5C 332.69,273.359 338.524,280.692 337.5,293.5 Z M 327.5,283.5 C 327.5,284.5 327.5,285.5 327.5,286.5C 322.305,286.821 317.305,286.487 312.5,285.5C 316.621,278.463 321.621,277.796 327.5,283.5 Z"/></g>
<g><path style="opacity:1" fill="#ed8e2d" d="M 316.5,273.5 C 319.187,273.336 321.854,273.503 324.5,274C 330.633,275.067 330.966,276.9 325.5,279.5C 322.217,278.673 318.884,278.34 315.5,278.5C 315.366,276.708 315.699,275.042 316.5,273.5 Z"/></g>
<g><path style="opacity:1" fill="#e5a668" d="M 295.5,291.5 C 296.109,285.649 297.442,279.983 299.5,274.5C 297.167,274.5 294.833,274.5 292.5,274.5C 292.662,276.527 292.495,278.527 292,280.5C 290.359,282.84 288.859,285.173 287.5,287.5C 289.196,282.942 290.696,278.276 292,273.5C 295.394,272.544 298.894,272.211 302.5,272.5C 300.402,279.008 298.069,285.342 295.5,291.5 Z"/></g>
<g><path style="opacity:1" fill="#d38e41" d="M 131.5,275.5 C 131.36,277.124 132.027,278.29 133.5,279C 133.167,279.333 132.833,279.667 132.5,280C 136.425,283.806 141.092,285.973 146.5,286.5C 145.878,287.627 145.045,288.627 144,289.5C 138.479,285.969 132.979,282.469 127.5,279C 128.532,277.373 129.866,276.207 131.5,275.5 Z"/></g>
<g><path style="opacity:0.239" fill="#feddb6" d="M 327.5,283.5 C 328.434,284.568 328.768,285.901 328.5,287.5C 322.833,287.5 317.167,287.5 311.5,287.5C 311.328,286.508 311.662,285.842 312.5,285.5C 317.305,286.487 322.305,286.821 327.5,286.5C 327.5,285.5 327.5,284.5 327.5,283.5 Z"/></g>
<g><path style="opacity:0.369" fill="#f2c89e" d="M 252.5,308.5 C 255.5,308.5 258.5,308.5 261.5,308.5C 261.5,296.833 261.5,285.167 261.5,273.5C 258.145,273.091 255.145,273.758 252.5,275.5C 252.5,274.5 252.5,273.5 252.5,272.5C 255.833,272.5 259.167,272.5 262.5,272.5C 262.5,284.833 262.5,297.167 262.5,309.5C 258.958,309.813 255.625,309.479 252.5,308.5 Z"/></g>
<g><path style="opacity:1" fill="#ed8f2b" d="M 311.5,293.5 C 310.035,295.546 310.368,297.38 312.5,299C 308.952,304.052 306.952,303.552 306.5,297.5C 305.5,297.5 304.5,297.5 303.5,297.5C 303.5,297.167 303.5,296.833 303.5,296.5C 303.672,292.466 304.172,288.466 305,284.5C 306.993,285.914 309.16,286.914 311.5,287.5C 317.645,288.49 323.978,288.823 330.5,288.5C 330.077,285.712 331.077,283.712 333.5,282.5C 334.231,284.401 334.231,286.401 333.5,288.5C 334.5,288.5 335.5,288.5 336.5,288.5C 336.5,289.833 336.5,291.167 336.5,292.5C 327.983,292.174 319.65,292.507 311.5,293.5 Z"/></g>
<g><path style="opacity:0.788" fill="#dca870" d="M 234.5,288.5 C 234.5,288.167 234.5,287.833 234.5,287.5C 235.328,293.987 235.828,300.654 236,307.5C 238.381,308.435 240.881,308.768 243.5,308.5C 243.5,292.167 243.5,275.833 243.5,259.5C 240.881,259.232 238.381,259.565 236,260.5C 235.828,267.013 235.328,273.347 234.5,279.5C 234.5,279.167 234.5,278.833 234.5,278.5C 234.5,271.833 234.5,265.167 234.5,258.5C 237.833,258.5 241.167,258.5 244.5,258.5C 244.5,275.5 244.5,292.5 244.5,309.5C 241.167,309.5 237.833,309.5 234.5,309.5C 234.5,302.5 234.5,295.5 234.5,288.5 Z"/></g>
<g><path style="opacity:1" fill="#d99146" d="M 252.5,308.5 C 252.5,297.5 252.5,286.5 252.5,275.5C 255.145,273.758 258.145,273.091 261.5,273.5C 261.5,285.167 261.5,296.833 261.5,308.5C 258.5,308.5 255.5,308.5 252.5,308.5 Z"/></g>
<g><path style="opacity:1" fill="#ed902e" d="M 254.5,274.5 C 256.5,274.5 258.5,274.5 260.5,274.5C 260.5,285.5 260.5,296.5 260.5,307.5C 258.5,307.5 256.5,307.5 254.5,307.5C 254.5,296.5 254.5,285.5 254.5,274.5 Z"/></g>
<g><path style="opacity:1" fill="#e4974a" d="M 276.5,276.5 C 279.287,283.358 281.787,290.358 284,297.5C 284.946,293.972 286.113,290.639 287.5,287.5C 287.249,291.249 286.583,294.915 285.5,298.5C 282.459,298.594 280.793,297.094 280.5,294C 277.522,293.14 276.188,294.307 276.5,297.5C 278.052,300.324 279.052,303.324 279.5,306.5C 283.75,307.081 287.416,306.081 290.5,303.5C 290.567,304.959 290.234,306.292 289.5,307.5C 285.936,308.423 282.269,308.756 278.5,308.5C 274.973,298.022 271.306,287.689 267.5,277.5C 266.833,277.5 266.5,277.167 266.5,276.5C 266.5,275.5 266.5,274.5 266.5,273.5C 269.5,273.5 272.5,273.5 275.5,273.5C 275.263,274.791 275.596,275.791 276.5,276.5 Z"/></g>
<g><path style="opacity:1" fill="#ed902e" d="M 267.5,277.5 C 267.5,276.5 267.5,275.5 267.5,274.5C 269.833,274.5 272.167,274.5 274.5,274.5C 274.714,276.144 274.38,277.644 273.5,279C 276.273,281.257 277.94,284.257 278.5,288C 278.291,289.871 277.291,291.038 275.5,291.5C 274.319,289.865 274.319,288.198 275.5,286.5C 272.165,285.452 270.665,283.118 271,279.5C 269.887,278.695 268.721,278.028 267.5,277.5 Z"/></g>
<g><path style="opacity:1" fill="#e68f31" d="M 90.5,272.5 C 91.1667,272.5 91.8333,272.5 92.5,272.5C 92.19,275.713 92.5233,278.713 93.5,281.5C 94.3915,283.714 96.0582,284.714 98.5,284.5C 101.916,283.956 104.916,282.622 107.5,280.5C 107.389,281.117 107.056,281.617 106.5,282C 109.74,284.091 113.074,285.924 116.5,287.5C 121.669,291.154 127.003,294.654 132.5,298C 127.138,301.348 121.472,304.181 115.5,306.5C 110.195,304.514 105.195,302.014 100.5,299C 92.2319,294.046 84.2319,288.879 76.5,283.5C 79.5719,283.183 82.5719,283.516 85.5,284.5C 90.029,288.65 91.6957,287.65 90.5,281.5C 89.2638,282.246 87.9305,282.579 86.5,282.5C 86.5,281.5 86.5,280.5 86.5,279.5C 87.8221,279.67 88.9887,279.337 90,278.5C 90.4955,276.527 90.6621,274.527 90.5,272.5 Z"/></g>
<g><path style="opacity:0.248" fill="#fcdab7" d="M 311.5,293.5 C 320.167,293.5 328.833,293.5 337.5,293.5C 329.167,294.167 320.833,294.833 312.5,295.5C 311.662,295.158 311.328,294.492 311.5,293.5 Z"/></g>
<g><path style="opacity:0.192" fill="#f8cb9f" d="M 203.5,259.5 C 203.833,259.5 204.167,259.5 204.5,259.5C 204.5,275.833 204.5,292.167 204.5,308.5C 207.5,308.5 210.5,308.5 213.5,308.5C 213.5,301.5 213.5,294.5 213.5,287.5C 220.5,287.5 227.5,287.5 234.5,287.5C 234.5,287.833 234.5,288.167 234.5,288.5C 227.833,288.5 221.167,288.5 214.5,288.5C 214.5,295.5 214.5,302.5 214.5,309.5C 210.833,309.5 207.167,309.5 203.5,309.5C 203.5,292.833 203.5,276.167 203.5,259.5 Z"/></g>
<g><path style="opacity:0.369" fill="#e6b37b" d="M 331.5,306.5 C 331.5,305.167 331.5,303.833 331.5,302.5C 332.5,302.5 333.5,302.5 334.5,302.5C 334.5,301.5 334.5,300.5 334.5,299.5C 331.068,299.757 327.734,300.424 324.5,301.5C 327.655,297.214 331.655,296.381 336.5,299C 337.451,299.718 337.617,300.551 337,301.5C 335.621,303.715 333.787,305.381 331.5,306.5 Z"/></g>
<g><path style="opacity:1" fill="#eb912f" d="M 295.5,291.5 C 294.354,295.783 292.687,299.783 290.5,303.5C 287.416,306.081 283.75,307.081 279.5,306.5C 279.052,303.324 278.052,300.324 276.5,297.5C 276.188,294.307 277.522,293.14 280.5,294C 280.793,297.094 282.459,298.594 285.5,298.5C 286.583,294.915 287.249,291.249 287.5,287.5C 288.859,285.173 290.359,282.84 292,280.5C 292.495,278.527 292.662,276.527 292.5,274.5C 294.833,274.5 297.167,274.5 299.5,274.5C 297.442,279.983 296.109,285.649 295.5,291.5 Z"/></g>
<g><path style="opacity:1" fill="#e59a4b" d="M 311.5,293.5 C 311.328,294.492 311.662,295.158 312.5,295.5C 315.091,300.129 319.091,302.129 324.5,301.5C 324.719,302.675 324.386,303.675 323.5,304.5C 320.971,303.04 318.304,302.54 315.5,303C 314.027,303.71 313.36,304.876 313.5,306.5C 318.674,308.797 324.007,309.13 329.5,307.5C 317.605,312.552 308.938,309.219 303.5,297.5C 304.5,297.5 305.5,297.5 306.5,297.5C 306.952,303.552 308.952,304.052 312.5,299C 310.368,297.38 310.035,295.546 311.5,293.5 Z"/></g>
<g><path style="opacity:1" fill="#ea9131" d="M 331.5,306.5 C 331.158,307.338 330.492,307.672 329.5,307.5C 324.007,309.13 318.674,308.797 313.5,306.5C 313.36,304.876 314.027,303.71 315.5,303C 318.304,302.54 320.971,303.04 323.5,304.5C 324.386,303.675 324.719,302.675 324.5,301.5C 327.734,300.424 331.068,299.757 334.5,299.5C 334.5,300.5 334.5,301.5 334.5,302.5C 333.5,302.5 332.5,302.5 331.5,302.5C 331.5,303.833 331.5,305.167 331.5,306.5 Z"/></g>
<g><path style="opacity:1" fill="#3f4243" d="M 74.5,263.5 C 73.6423,269.816 73.4756,276.15 74,282.5C 74.6708,283.252 75.5041,283.586 76.5,283.5C 84.2319,288.879 92.2319,294.046 100.5,299C 105.195,302.014 110.195,304.514 115.5,306.5C 121.472,304.181 127.138,301.348 132.5,298C 127.003,294.654 121.669,291.154 116.5,287.5C 117.695,287.678 118.862,288.011 120,288.5C 121.826,287.99 121.993,287.156 120.5,286C 121.793,285.51 123.127,285.343 124.5,285.5C 124.5,287.167 124.5,288.833 124.5,290.5C 125.93,290.579 127.264,290.246 128.5,289.5C 130.262,292.888 131.929,296.221 133.5,299.5C 135.792,299.756 137.959,299.423 140,298.5C 140.826,300.405 141.993,300.739 143.5,299.5C 142.109,299.891 141.109,299.058 140.5,297C 141.667,295.833 142.833,294.667 144,293.5C 144.333,294.167 144.667,294.833 145,295.5C 146.711,294.419 148.211,294.752 149.5,296.5C 145.507,300.688 140.84,304.188 135.5,307C 125.174,313.162 114.174,317.662 102.5,320.5C 104.589,316.122 107.922,314.455 112.5,315.5C 116.482,311.735 115.815,308.735 110.5,306.5C 110.788,308.048 110.788,309.715 110.5,311.5C 106.454,305.553 101.787,304.886 96.5,309.5C 98.9582,309.227 100.625,310.227 101.5,312.5C 100.08,314.709 98.4133,316.709 96.5,318.5C 95.6919,318.192 95.0253,317.692 94.5,317C 88.8964,316.771 83.3964,316.604 78,316.5C 77.5073,319.985 76.0073,320.485 73.5,318C 73.8333,317.667 74.1667,317.333 74.5,317C 74.203,313.502 72.8696,310.502 70.5,308C 72.1211,303.984 72.6211,299.817 72,295.5C 70.308,293.755 68.4747,293.422 66.5,294.5C 69.1321,298.205 69.4654,301.872 67.5,305.5C 64.5947,295.295 63.928,284.962 65.5,274.5C 65.3338,280.509 65.5005,286.509 66,292.5C 66.1858,290.1 66.6858,287.766 67.5,285.5C 68.8333,287.167 70.1667,288.833 71.5,290.5C 72.2343,288.185 73.5676,286.352 75.5,285C 74.5,284.667 73.5,284.333 72.5,284C 72.1667,281 70.5,279.333 67.5,279C 70.4789,277.388 71.8122,274.888 71.5,271.5C 70.0222,271.762 68.6888,271.429 67.5,270.5C 69.0453,269.548 70.712,269.215 72.5,269.5C 72.0254,266.918 72.6921,264.918 74.5,263.5 Z"/></g>
<g><path style="opacity:1" fill="#c08745" d="M 84.5,303.5 C 81.5503,302.739 78.8836,301.405 76.5,299.5C 76.1667,299.833 75.8333,300.167 75.5,300.5C 76.9883,304.787 78.3217,309.12 79.5,313.5C 82.0865,314.48 84.7531,314.813 87.5,314.5C 84.6447,315.803 81.6447,315.803 78.5,314.5C 77.2699,310.845 76.1032,307.178 75,303.5C 74.1923,301.421 74.359,299.421 75.5,297.5C 79.0827,298.78 82.0827,300.78 84.5,303.5 Z"/></g>
<g><path style="opacity:0.004" fill="#fefffe" d="M 466.5,307.5 C 467.833,308.167 467.833,308.167 466.5,307.5 Z"/></g>
<g><path style="opacity:0.243" fill="#fedbb5" d="M 289.5,307.5 C 288.129,308.787 286.295,309.453 284,309.5C 281.967,309.494 280.134,309.161 278.5,308.5C 282.269,308.756 285.936,308.423 289.5,307.5 Z"/></g>
<g><path style="opacity:1" fill="#eb8f2d" d="M 84.5,303.5 C 86.0618,303.733 87.3951,304.4 88.5,305.5C 88.5,306.5 88.5,307.5 88.5,308.5C 91.155,308.659 93.4883,309.659 95.5,311.5C 92.8164,312.753 90.1497,313.753 87.5,314.5C 84.7531,314.813 82.0865,314.48 79.5,313.5C 78.3217,309.12 76.9883,304.787 75.5,300.5C 75.8333,300.167 76.1667,299.833 76.5,299.5C 78.8836,301.405 81.5503,302.739 84.5,303.5 Z"/></g>
<g><path style="opacity:0.004" fill="#fefffe" d="M 420.5,310.5 C 421.833,311.167 421.833,311.167 420.5,310.5 Z"/></g>
<g><path style="opacity:1" fill="#918f92" d="M 68.5,310.5 C 69.3094,311.469 70.3094,312.302 71.5,313C 70.9152,314.302 70.2485,315.469 69.5,316.5C 69.1667,314.5 68.8333,312.5 68.5,310.5 Z"/></g>
<g><path style="opacity:1" fill="#c98c46" d="M 88.5,305.5 C 91.1667,306.833 93.8333,308.167 96.5,309.5C 97.6602,310.265 98.6602,311.265 99.5,312.5C 95.6074,313.815 91.6074,314.482 87.5,314.5C 90.1497,313.753 92.8164,312.753 95.5,311.5C 93.4883,309.659 91.155,308.659 88.5,308.5C 88.5,307.5 88.5,306.5 88.5,305.5 Z"/></g>
<g><path style="opacity:0.004" fill="#fefffe" d="M 328.5,313.5 C 329.833,314.167 329.833,314.167 328.5,313.5 Z"/></g>
<g><path style="opacity:1" fill="#3a4046" d="M 96.5,309.5 C 101.787,304.886 106.454,305.553 110.5,311.5C 110.788,309.715 110.788,308.048 110.5,306.5C 115.815,308.735 116.482,311.735 112.5,315.5C 107.922,314.455 104.589,316.122 102.5,320.5C 97.5543,321.819 92.5543,322.986 87.5,324C 81.4092,327.712 75.0758,330.879 68.5,333.5C 66.5393,332.921 65.5393,331.587 65.5,329.5C 66.0881,324.85 67.4214,320.517 69.5,316.5C 70.2485,315.469 70.9152,314.302 71.5,313C 70.3094,312.302 69.3094,311.469 68.5,310.5C 68.3713,308.784 68.038,307.117 67.5,305.5C 69.4654,301.872 69.1321,298.205 66.5,294.5C 68.4747,293.422 70.308,293.755 72,295.5C 72.6211,299.817 72.1211,303.984 70.5,308C 72.8696,310.502 74.203,313.502 74.5,317C 74.1667,317.333 73.8333,317.667 73.5,318C 76.0073,320.485 77.5073,319.985 78,316.5C 83.3964,316.604 88.8964,316.771 94.5,317C 95.0253,317.692 95.6919,318.192 96.5,318.5C 98.4133,316.709 100.08,314.709 101.5,312.5C 100.625,310.227 98.9582,309.227 96.5,309.5 Z"/></g>
<g><path style="opacity:0.004" fill="#fefffe" d="M 288.5,324.5 C 289.833,325.167 289.833,325.167 288.5,324.5 Z"/></g>
<g><path style="opacity:0.004" fill="#fefffe" d="M 427.5,337.5 C 428.833,338.167 428.833,338.167 427.5,337.5 Z"/></g>
<g><path style="opacity:0.004" fill="#fefffe" d="M 174.5,338.5 C 175.833,339.167 175.833,339.167 174.5,338.5 Z"/></g>
<g><path style="opacity:0.004" fill="#fefffe" d="M 473.5,339.5 C 474.833,340.167 474.833,340.167 473.5,339.5 Z"/></g>
<g><path style="opacity:0.004" fill="#fefffe" d="M 442.5,351.5 C 443.833,352.167 443.833,352.167 442.5,351.5 Z"/></g>
<g><path style="opacity:0.004" fill="#fefffe" d="M 473.5,356.5 C 474.833,357.167 474.833,357.167 473.5,356.5 Z"/></g>
<g><path style="opacity:0.004" fill="#fefffe" d="M 2.5,373.5 C 3.83333,374.167 3.83333,374.167 2.5,373.5 Z"/></g>
<g><path style="opacity:0.004" fill="#fefffe" d="M 125.5,373.5 C 126.833,374.167 126.833,374.167 125.5,373.5 Z"/></g>
<g><path style="opacity:0.004" fill="#fefffe" d="M 68.5,381.5 C 69.8333,382.167 69.8333,382.167 68.5,381.5 Z"/></g>
<g><path style="opacity:0.004" fill="#fefffe" d="M 146.5,386.5 C 147.833,387.167 147.833,387.167 146.5,386.5 Z"/></g>
<g><path style="opacity:0.004" fill="#fefffe" d="M 36.5,388.5 C 37.8333,389.167 37.8333,389.167 36.5,388.5 Z"/></g>
<g><path style="opacity:0.004" fill="#fefffe" d="M 487.5,396.5 C 488.833,397.167 488.833,397.167 487.5,396.5 Z"/></g>
<g><path style="opacity:0.004" fill="#fefffe" d="M 379.5,400.5 C 380.833,401.167 380.833,401.167 379.5,400.5 Z"/></g>
<g><path style="opacity:0.004" fill="#fefffe" d="M 168.5,413.5 C 169.833,414.167 169.833,414.167 168.5,413.5 Z"/></g>
<g><path style="opacity:0.004" fill="#fefffe" d="M 43.5,417.5 C 44.8333,418.167 44.8333,418.167 43.5,417.5 Z"/></g>
<g><path style="opacity:0.004" fill="#fefffe" d="M 486.5,427.5 C 487.833,428.167 487.833,428.167 486.5,427.5 Z"/></g>
<g><path style="opacity:0.004" fill="#fefffe" d="M 137.5,439.5 C 138.833,440.167 138.833,440.167 137.5,439.5 Z"/></g>
<g><path style="opacity:0.004" fill="#fefffe" d="M 231.5,441.5 C 232.833,442.167 232.833,442.167 231.5,441.5 Z"/></g>
<g><path style="opacity:0.004" fill="#fefffe" d="M 439.5,449.5 C 440.833,450.167 440.833,450.167 439.5,449.5 Z"/></g>
<g><path style="opacity:0.004" fill="#fefffe" d="M 38.5,461.5 C 39.8333,462.167 39.8333,462.167 38.5,461.5 Z"/></g>
<g><path style="opacity:0.004" fill="#fefffe" d="M 413.5,461.5 C 414.833,462.167 414.833,462.167 413.5,461.5 Z"/></g>
<g><path style="opacity:0.004" fill="#fefffe" d="M 125.5,467.5 C 126.833,468.167 126.833,468.167 125.5,467.5 Z"/></g>
<g><path style="opacity:0.004" fill="#fefffe" d="M 144.5,470.5 C 145.833,471.167 145.833,471.167 144.5,470.5 Z"/></g>
<g><path style="opacity:0.004" fill="#fefffe" d="M 219.5,474.5 C 220.833,475.167 220.833,475.167 219.5,474.5 Z"/></g>
<g><path style="opacity:0.004" fill="#fefffe" d="M 404.5,475.5 C 405.833,476.167 405.833,476.167 404.5,475.5 Z"/></g>
<g><path style="opacity:0.004" fill="#fefffe" d="M 28.5,477.5 C 29.8333,478.167 29.8333,478.167 28.5,477.5 Z"/></g>
<g><path style="opacity:0.004" fill="#fefffe" d="M 62.5,483.5 C 63.8333,484.167 63.8333,484.167 62.5,483.5 Z"/></g>
<g><path style="opacity:0.004" fill="#fefffe" d="M 307.5,491.5 C 308.833,492.167 308.833,492.167 307.5,491.5 Z"/></g>
<g><path style="opacity:0.004" fill="#fefffe" d="M 403.5,491.5 C 404.833,492.167 404.833,492.167 403.5,491.5 Z"/></g>
<g><path style="opacity:0.004" fill="#fefffe" d="M 170.5,495.5 C 171.833,496.167 171.833,496.167 170.5,495.5 Z"/></g>
</svg>
